<?xml version="1.0" encoding="utf-8"?>
<!-- Generator: Adobe Illustrator 24.0.0, SVG Export Plug-In . SVG Version: 6.00 Build 0)  -->
<svg version="1.1" xmlns="http://www.w3.org/2000/svg" xmlns:xlink="http://www.w3.org/1999/xlink" x="0px" y="0px"
	 viewBox="0 0 256 256" enable-background="new 0 0 256 256" xml:space="preserve">
<g id="Layer_1">
</g>
<g id="Layer_2">
</g>
<g id="Layer_3">
</g>
<g id="Layer_4">
</g>
<g id="Layer_5">
</g>
<g id="Layer_6">
</g>
<g id="Layer_7">
</g>
<g id="Layer_8">
</g>
<g id="Layer_9">
</g>
<g id="Layer_10">
</g>
<g id="Layer_11">
</g>
<g id="Layer_12">
</g>
<g id="Layer_13">
</g>
<g id="Layer_14">
</g>
<g id="Layer_15">
</g>
<g id="Layer_16">
</g>
<g id="Layer_17">
</g>
<g id="Layer_18">
</g>
<g id="Layer_19">
</g>
<g id="Layer_20">
</g>
<g id="Layer_21">
</g>
<g id="Layer_22">
</g>
<g id="Layer_23">
</g>
<g id="Layer_24">
</g>
<g id="Layer_25">
</g>
<g id="Layer_26">
</g>
<g id="Layer_27">
</g>
<g id="Layer_28">
</g>
<g id="Layer_29">
</g>
<g id="Layer_30">
</g>
<g id="Layer_31">
</g>
<g id="Layer_32">
</g>
<g id="Layer_33">
</g>
<g id="Layer_34">
</g>
<g id="Layer_35">
</g>
<g id="Layer_36">
</g>
<g id="Layer_37">
</g>
<g id="Layer_38">
</g>
<g id="Layer_39">
</g>
<g id="Layer_40">
</g>
<g id="Layer_41">
</g>
<g id="Layer_42">
</g>
<g id="Layer_43">
</g>
<g id="Layer_44">
</g>
<g id="Layer_45">
</g>
<g id="Layer_46">
</g>
<g id="Layer_47">
</g>
<g id="Layer_48">
</g>
<g id="Layer_49">
</g>
<g id="Layer_50">
</g>
<g id="Layer_51">
</g>
<g id="Layer_52">
</g>
<g id="Layer_53">
</g>
<g id="Layer_54">
</g>
<g id="Layer_55">
</g>
<g id="Layer_56">
</g>
<g id="Layer_57">
</g>
<g id="Layer_58">
</g>
<g id="Layer_59">
</g>
<g id="Layer_60">
</g>
<g id="Layer_61">
</g>
<g id="Layer_62">
	<g>
		<g>
			<g>
				<path fill="#EDF4FC" d="M222.518,89.454H36.598c-0.973,0-1.902-0.198-2.751-0.554v157.006c0,4.194,3.4,7.594,7.594,7.594
					h176.235c4.194,0,7.594-3.4,7.594-7.594V88.9C224.421,89.256,223.492,89.454,222.518,89.454z"/>
			</g>
		</g>
		<g>
			<g>
				<path fill="#70D6F9" d="M189.795,173.765c1.35-1.576,1.35-3.9,0-5.476l-5.143-6.005c-0.956-1.117-1.261-2.652-0.803-4.049
					l2.459-7.506c0.647-1.976-0.245-4.128-2.1-5.067l-7.047-3.565c-1.313-0.664-2.184-1.966-2.297-3.433l-0.607-7.88
					c-0.159-2.07-1.804-3.714-3.874-3.874l-7.881-0.607c-1.467-0.113-2.769-0.984-3.433-2.297l-3.565-7.047
					c-0.939-1.855-3.091-2.747-5.067-2.1l-7.506,2.459c-1.397,0.458-2.932,0.153-4.049-0.803l-6.006-5.143
					c-1.576-1.35-3.9-1.35-5.476,0l-6.005,5.143c-1.117,0.957-2.652,1.261-4.049,0.803l-7.505-2.459
					c-1.976-0.647-4.128,0.245-5.067,2.1l-3.565,7.047c-0.664,1.313-1.966,2.184-3.433,2.297l-7.88,0.607
					c-2.07,0.159-3.714,1.804-3.874,3.874l-0.607,7.881c-0.113,1.467-0.984,2.769-2.297,3.433l-7.047,3.565
					c-1.855,0.939-2.747,3.091-2.1,5.067l2.459,7.506c0.458,1.397,0.153,2.932-0.803,4.049l-5.143,6.006
					c-1.35,1.576-1.35,3.9,0,5.476l5.143,6.005c0.956,1.117,1.261,2.652,0.803,4.049l-2.459,7.506
					c-0.647,1.976,0.245,4.128,2.1,5.067l7.047,3.565c1.313,0.664,2.184,1.966,2.297,3.433l0.607,7.881
					c0.159,2.07,1.804,3.714,3.874,3.874l7.881,0.607c1.467,0.113,2.769,0.984,3.433,2.297l3.565,7.047
					c0.939,1.855,3.091,2.747,5.067,2.1l7.506-2.459c1.397-0.458,2.932-0.153,4.049,0.803l6.006,5.143c1.576,1.35,3.9,1.35,5.476,0
					l6.005-5.143c1.117-0.956,2.652-1.261,4.049-0.803l7.505,2.459c1.976,0.647,4.128-0.245,5.067-2.1l3.565-7.047
					c0.664-1.313,1.966-2.184,3.433-2.297l7.88-0.607c2.07-0.159,3.714-1.804,3.874-3.874l0.607-7.881
					c0.113-1.467,0.984-2.769,2.297-3.433l7.047-3.565c1.855-0.938,2.747-3.091,2.1-5.067l-2.459-7.506
					c-0.458-1.397-0.153-2.932,0.803-4.049L189.795,173.765z"/>
			</g>
		</g>
		<g>
			<g>
				<path fill="#FC657E" d="M222.518,38.408h-9.96v6.546c0,3.025-2.475,5.5-5.5,5.5s-5.5-2.475-5.5-5.5v-6.546h-10v6.546
					c0,3.025-2.475,5.5-5.5,5.5s-5.5-2.475-5.5-5.5v-6.546h-102v6.546c0,3.025-2.475,5.5-5.5,5.5s-5.5-2.475-5.5-5.5v-6.546h-10
					v6.546c0,3.025-2.475,5.5-5.5,5.5s-5.5-2.475-5.5-5.5v-6.546h-9.96c-3.943,0-7.168,3.226-7.168,7.168v36.709
					c0,3.942,3.226,7.168,7.168,7.168h185.921c3.943,0,7.168-3.226,7.168-7.168V45.576
					C229.687,41.634,226.461,38.408,222.518,38.408z"/>
			</g>
		</g>
		<g>
			<g>
				<path fill="#F98FA6" d="M166.421,50.431H91.695c-1.456,0-2.637,1.18-2.637,2.637v21.727c0,1.456,1.18,2.637,2.637,2.637h74.727
					c1.456,0,2.637-1.181,2.637-2.637V53.068C169.058,51.612,167.878,50.431,166.421,50.431z"/>
			</g>
		</g>
		<g>
			<g>
				<path fill="#F5C84C" d="M52.058,19.454c-3.025,0-5.5,2.475-5.5,5.5v20c0,3.025,2.475,5.5,5.5,5.5s5.5-2.475,5.5-5.5v-20
					C57.558,21.929,55.083,19.454,52.058,19.454z"/>
			</g>
		</g>
		<g>
			<g>
				<path fill="#F5C84C" d="M73.058,19.454c-3.025,0-5.5,2.475-5.5,5.5v20c0,3.025,2.475,5.5,5.5,5.5s5.5-2.475,5.5-5.5v-20
					C78.558,21.929,76.083,19.454,73.058,19.454z"/>
			</g>
		</g>
		<g>
			<g>
				<path fill="#F5C84C" d="M186.058,19.454c-3.025,0-5.5,2.475-5.5,5.5v20c0,3.025,2.475,5.5,5.5,5.5s5.5-2.475,5.5-5.5v-20
					C191.558,21.929,189.083,19.454,186.058,19.454z"/>
			</g>
		</g>
		<g>
			<g>
				<path fill="#F5C84C" d="M207.058,19.454c-3.025,0-5.5,2.475-5.5,5.5v20c0,3.025,2.475,5.5,5.5,5.5s5.5-2.475,5.5-5.5v-20
					C212.558,21.929,210.083,19.454,207.058,19.454z"/>
			</g>
		</g>
		<g>
			<g>
				<path fill="#FC657E" d="M21.758,160.9h-2.3v-2.3c0-1.7-1.4-3.2-3.2-3.2c-1.8,0-3.2,1.4-3.2,3.2v2.3h-2.3c-1.7,0-3.2,1.4-3.2,3.2
					c0,1.8,1.4,3.2,3.2,3.2h2.3v2.3c0,1.7,1.4,3.2,3.2,3.2c1.8,0,3.2-1.4,3.2-3.2v-2.3h2.3c1.7,0,3.2-1.4,3.2-3.2
					C24.958,162.3,23.558,160.9,21.758,160.9z"/>
			</g>
		</g>
		<g>
			<g>
				<path fill="#F5C84C" d="M248.342,123.916c-3.008-0.535-5.348-2.875-5.95-5.816c0-0.134-0.267-0.134-0.267,0
					c-0.602,2.941-2.941,5.281-5.95,5.816c-0.134,0-0.134,0.2,0,0.267c3.008,0.535,5.348,2.875,5.95,5.816
					c0,0.134,0.267,0.134,0.267,0c0.602-2.941,2.941-5.281,5.95-5.816C248.475,124.117,248.475,123.916,248.342,123.916z"/>
			</g>
		</g>
		<g>
			<g>
				<path fill="#70D6F9" d="M157.358,14.85c-4.5-0.8-8-4.3-8.9-8.7c0-0.2-0.4-0.2-0.4,0c-0.9,4.4-4.4,7.9-8.9,8.7
					c-0.2,0-0.2,0.3,0,0.4c4.5,0.8,8,4.3,8.9,8.7c0,0.2,0.4,0.2,0.4,0c0.9-4.4,4.4-7.9,8.9-8.7
					C157.558,15.15,157.558,14.85,157.358,14.85z"/>
			</g>
		</g>
		<g>
			<g>
				<path fill="#F5C84C" d="M19.358,187.5c-1.878,0-3.4,1.522-3.4,3.4c0,1.878,1.522,3.4,3.4,3.4s3.4-1.522,3.4-3.4
					C22.758,189.022,21.236,187.5,19.358,187.5z"/>
			</g>
		</g>
		<g>
			<g>
				<path fill="#87D147" d="M119.358,0c-1.878,0-3.4,1.522-3.4,3.4c0,1.878,1.522,3.4,3.4,3.4s3.4-1.522,3.4-3.4
					C122.758,1.522,121.236,0,119.358,0z"/>
			</g>
		</g>
		<g>
			<g>
				<path d="M225.269,86.953c-1.381,0-2.5,1.119-2.5,2.5v156.453c0,2.809-2.285,5.094-5.094,5.094H41.441
					c-2.809,0-5.094-2.285-5.094-5.094V89.453c0-1.381-1.119-2.5-2.5-2.5s-2.5,1.119-2.5,2.5v156.453
					c0,5.565,4.528,10.094,10.094,10.094h176.234c5.566,0,10.094-4.528,10.094-10.094V89.453
					C227.769,88.072,226.65,86.953,225.269,86.953z"/>
			</g>
		</g>
		<g>
			<g>
				<g>
					<g>
						<path d="M52.058,16.954c-4.411,0-8,3.589-8,8v20c0,4.411,3.589,8,8,8s8-3.589,8-8v-20
							C60.058,20.543,56.469,16.954,52.058,16.954z M55.058,44.954c0,1.654-1.346,3-3,3s-3-1.346-3-3v-20c0-1.654,1.346-3,3-3
							s3,1.346,3,3V44.954z"/>
					</g>
				</g>
			</g>
		</g>
		<g>
			<g>
				<g>
					<g>
						<path d="M73.058,16.954c-4.411,0-8,3.589-8,8v20c0,4.411,3.589,8,8,8s8-3.589,8-8v-20
							C81.058,20.543,77.469,16.954,73.058,16.954z M76.058,44.954c0,1.654-1.346,3-3,3s-3-1.346-3-3v-20c0-1.654,1.346-3,3-3
							s3,1.346,3,3V44.954z"/>
					</g>
				</g>
			</g>
		</g>
		<g>
			<g>
				<g>
					<g>
						<path d="M186.058,16.954c-4.411,0-8,3.589-8,8v20c0,4.411,3.589,8,8,8s8-3.589,8-8v-20
							C194.058,20.543,190.469,16.954,186.058,16.954z M189.058,44.954c0,1.654-1.346,3-3,3s-3-1.346-3-3v-20c0-1.654,1.346-3,3-3
							s3,1.346,3,3V44.954z"/>
					</g>
				</g>
			</g>
		</g>
		<g>
			<g>
				<g>
					<g>
						<path d="M207.058,16.954c-4.411,0-8,3.589-8,8v20c0,4.411,3.589,8,8,8s8-3.589,8-8v-20
							C215.058,20.543,211.469,16.954,207.058,16.954z M210.058,44.954c0,1.654-1.346,3-3,3s-3-1.346-3-3v-20c0-1.654,1.346-3,3-3
							s3,1.346,3,3V44.954z"/>
					</g>
				</g>
			</g>
		</g>
		<g>
			<g>
				<path d="M66.813,35.908h-8.219c-1.381,0-2.5,1.119-2.5,2.5s1.119,2.5,2.5,2.5h8.219c1.381,0,2.5-1.119,2.5-2.5
					S68.194,35.908,66.813,35.908z"/>
			</g>
		</g>
		<g>
			<g>
				<path d="M180.104,35.908H79.292c-1.381,0-2.5,1.119-2.5,2.5s1.119,2.5,2.5,2.5h100.812c1.381,0,2.5-1.119,2.5-2.5
					S181.485,35.908,180.104,35.908z"/>
			</g>
		</g>
		<g>
			<g>
				<path d="M201,35.908h-8.667c-1.381,0-2.5,1.119-2.5,2.5s1.119,2.5,2.5,2.5H201c1.381,0,2.5-1.119,2.5-2.5
					S202.381,35.908,201,35.908z"/>
			</g>
		</g>
		<g>
			<g>
				<path d="M222.519,35.908h-9.102c-1.381,0-2.5,1.119-2.5,2.5s1.119,2.5,2.5,2.5h9.102c2.574,0,4.668,2.094,4.668,4.668v36.71
					c0,2.574-2.094,4.668-4.668,4.668H36.598c-2.574,0-4.668-2.094-4.668-4.668v-36.71c0-2.574,2.094-4.668,4.668-4.668h9.091
					c1.381,0,2.5-1.119,2.5-2.5s-1.119-2.5-2.5-2.5h-9.091c-5.331,0-9.668,4.337-9.668,9.668v36.71c0,5.331,4.337,9.668,9.668,9.668
					h185.921c5.331,0,9.668-4.337,9.668-9.668v-36.71C232.187,40.245,227.85,35.908,222.519,35.908z"/>
			</g>
		</g>
		<g>
			<g>
				<g>
					<g>
						<path d="M191.694,175.391c2.167-2.529,2.166-6.199,0-8.728l-5.143-6.006c-0.386-0.451-0.511-1.081-0.327-1.645l2.46-7.506
							c1.039-3.173-0.369-6.568-3.348-8.075l-7.047-3.565c-0.53-0.269-0.887-0.803-0.933-1.395l-0.607-7.881
							c-0.256-3.322-2.853-5.919-6.175-6.174l-7.881-0.608c-0.591-0.045-1.125-0.402-1.393-0.933l-3.565-7.047
							c-1.507-2.979-4.902-4.383-8.076-3.347l-7.506,2.459c-0.563,0.186-1.194,0.06-1.644-0.325l-6.006-5.145
							c-2.528-2.164-6.2-2.165-8.729,0.001l-6.006,5.143c-0.451,0.387-1.082,0.512-1.643,0.326l-7.507-2.46
							c-3.171-1.039-6.568,0.371-8.075,3.348l-3.565,7.047c-0.268,0.53-0.802,0.888-1.394,0.934l-7.882,0.606
							c-3.322,0.257-5.918,2.854-6.173,6.174l-0.607,7.881c-0.045,0.592-0.403,1.126-0.933,1.395l-7.047,3.565
							c-2.979,1.507-4.387,4.903-3.348,8.076l2.459,7.507c0.185,0.563,0.06,1.192-0.326,1.644l-5.143,6.005
							c-2.167,2.529-2.167,6.2,0,8.729l5.143,6.006c0.386,0.45,0.511,1.08,0.326,1.645l-2.459,7.505
							c-1.039,3.173,0.369,6.569,3.347,8.076l7.047,3.565c0.53,0.269,0.887,0.803,0.933,1.395l0.607,7.881
							c0.256,3.32,2.853,5.917,6.175,6.174l7.882,0.608c0.591,0.045,1.125,0.402,1.393,0.933l3.566,7.047
							c1.507,2.979,4.904,4.385,8.076,3.347l7.506-2.459c0.563-0.186,1.192-0.061,1.644,0.325l6.005,5.144
							c1.264,1.082,2.814,1.624,4.364,1.624s3.1-0.542,4.364-1.625l6.005-5.142c0.451-0.386,1.081-0.512,1.645-0.326l7.505,2.459
							c3.171,1.037,6.57-0.368,8.076-3.347l3.565-7.048c0.268-0.529,0.802-0.887,1.394-0.933l7.88-0.607
							c3.321-0.255,5.918-2.852,6.175-6.173l0.607-7.881c0.046-0.593,0.403-1.127,0.933-1.396l7.048-3.564
							c2.979-1.508,4.386-4.904,3.347-8.076l-2.459-7.506c-0.185-0.563-0.06-1.193,0.326-1.645L191.694,175.391z M182.754,178.144
							c-1.515,1.768-2.005,4.24-1.281,6.454l2.459,7.506c0.265,0.809-0.094,1.674-0.853,2.059l-7.047,3.564
							c-2.079,1.051-3.481,3.147-3.661,5.472l-0.607,7.881c-0.065,0.847-0.727,1.508-1.573,1.573l-7.881,0.607
							c-2.324,0.179-4.421,1.582-5.472,3.66l-3.565,7.048c-0.383,0.759-1.248,1.116-2.058,0.852l-7.505-2.459
							c-2.212-0.725-4.685-0.234-6.454,1.28l-6.005,5.142c-0.645,0.553-1.58,0.552-2.225,0.001l-6.005-5.144
							c-1.228-1.051-2.796-1.608-4.379-1.608c-0.697,0-1.398,0.107-2.074,0.329l-7.506,2.459c-0.809,0.264-1.674-0.094-2.058-0.853
							l-3.565-7.046c-1.052-2.081-3.149-3.483-5.472-3.661l-7.88-0.607c-0.847-0.065-1.509-0.728-1.574-1.574l-0.607-7.88
							c-0.179-2.323-1.582-4.42-3.661-5.472l-7.047-3.565c-0.759-0.384-1.117-1.25-0.853-2.059l2.459-7.505
							c0.725-2.212,0.235-4.686-1.279-6.453l-5.144-6.007c-0.552-0.644-0.552-1.578,0-2.223l5.144-6.007
							c1.514-1.769,2.004-4.241,1.279-6.452l-2.459-7.506c-0.265-0.809,0.093-1.674,0.853-2.059l7.047-3.565
							c2.079-1.051,3.481-3.147,3.661-5.471l0.607-7.882c0.065-0.846,0.727-1.508,1.573-1.573l7.881-0.606
							c2.323-0.179,4.419-1.582,5.471-3.66l3.565-7.048c0.383-0.759,1.25-1.117,2.057-0.853l7.505,2.46
							c2.212,0.726,4.687,0.234,6.454-1.281l6.005-5.142c0.645-0.553,1.581-0.552,2.224-0.001l6.006,5.145
							c1.77,1.514,4.242,2.004,6.453,1.279l7.506-2.459c0.808-0.266,1.674,0.094,2.058,0.853l3.565,7.047
							c1.053,2.08,3.15,3.482,5.472,3.66l7.88,0.607c0.846,0.065,1.508,0.728,1.573,1.574l0.607,7.881
							c0.18,2.323,1.583,4.42,3.661,5.471l7.047,3.565c0.759,0.384,1.117,1.25,0.853,2.058l-2.46,7.506
							c-0.724,2.213-0.233,4.685,1.28,6.453l5.143,6.007c0.552,0.644,0.552,1.578,0,2.222c0,0.001,0,0.001,0,0.001L182.754,178.144z
							"/>
					</g>
				</g>
			</g>
		</g>
		<g>
			<g>
				<circle fill="#F5C84C" cx="145.466" cy="143.877" r="7.543"/>
			</g>
		</g>
		<g>
			<g>
				<path fill="#F5C84C" d="M140.388,180.227l-10.497-5.904l11.194-11.916c2.291-2.437,1.476-6.4-1.298-7.88l-15.086-8.046
					c-1.828-0.975-4.066-0.729-5.639,0.619l-14.08,12.069c-2.109,1.808-2.353,4.982-0.546,7.091
					c1.805,2.105,4.979,2.356,7.091,0.546l11.472-9.833l6.258,3.338l-11.091,11.806c-2.236,2.38-1.642,6.228,1.2,7.826l10.53,5.923
					l-8.732,9.404c-1.89,2.035-1.772,5.217,0.263,7.107c2.036,1.89,5.217,1.771,7.107-0.263l13.075-14.08
					C143.817,185.652,143.226,181.823,140.388,180.227z"/>
			</g>
		</g>
		<g>
			<g>
				<path fill="#F5C84C" d="M119.366,179.941c-2.842-1.598-3.436-5.446-1.2-7.826l0.091-0.097L94.214,195.06
					c-2.005,1.922-2.073,5.105-0.151,7.11c1.917,2.001,5.101,2.077,7.11,0.151l21.444-20.551L119.366,179.941z"/>
			</g>
		</g>
		<g>
			<g>
				<path fill="#F5C84C" d="M170.721,155.095c-1.58-2.283-4.713-2.853-6.997-1.272l-10.627,7.357l-13.37-6.685l0.059,0.031
					c2.775,1.48,3.59,5.443,1.298,7.88l-2.564,2.73l12.742,6.371c1.638,0.82,3.598,0.684,5.111-0.363l13.075-9.052
					C171.733,160.511,172.302,157.379,170.721,155.095z"/>
			</g>
		</g>
		<g>
			<g>
				<g>
					<g>
						<path d="M145.466,133.834c-5.538,0-10.043,4.506-10.043,10.044s4.505,10.043,10.043,10.043
							c5.538,0,10.043-4.505,10.043-10.043S151.004,133.834,145.466,133.834z M145.466,148.921c-2.781,0-5.043-2.263-5.043-5.043
							c0-2.781,2.262-5.044,5.043-5.044s5.043,2.263,5.043,5.044C150.509,146.658,148.247,148.921,145.466,148.921z"/>
					</g>
				</g>
			</g>
		</g>
		<g>
			<g>
				<g>
					<g>
						<path d="M145.36,183.446c-0.358-2.293-1.724-4.261-3.746-5.398h0l-7.715-4.34l9.008-9.589
							c1.597-1.698,2.292-4.012,1.908-6.347c-0.383-2.332-1.823-4.37-3.852-5.452l-15.086-8.046
							c-2.756-1.469-6.071-1.106-8.442,0.927l-14.081,12.068c-3.152,2.702-3.518,7.465-0.816,10.616
							c2.701,3.152,7.463,3.518,10.616,0.817l10.176-8.722l1.869,0.996l-8.854,9.426c-1.594,1.697-2.307,3.992-1.953,6.296
							s1.72,4.28,3.75,5.421l7.765,4.368l-6.574,7.079c-2.824,3.042-2.647,7.814,0.394,10.64c1.447,1.344,3.285,2.008,5.12,2.008
							c2.021,0,4.039-0.807,5.52-2.401l13.075-14.08C145.019,188.032,145.719,185.74,145.36,183.446z M139.776,186.331
							l-13.074,14.079c-0.949,1.023-2.552,1.082-3.574,0.133c-1.021-0.948-1.081-2.552-0.132-3.573l8.732-9.404
							c0.521-0.562,0.756-1.33,0.638-2.087c-0.119-0.757-0.577-1.418-1.245-1.793l-10.53-5.923
							c-0.681-0.383-1.139-1.047-1.258-1.821c-0.119-0.774,0.12-1.545,0.655-2.114l11.091-11.807
							c0.533-0.567,0.771-1.351,0.645-2.118c-0.127-0.769-0.604-1.434-1.291-1.8l-6.258-3.337c-0.37-0.197-0.774-0.294-1.176-0.294
							c-0.584,0-1.164,0.205-1.627,0.602l-11.472,9.833c-1.06,0.907-2.659,0.783-3.566-0.274c-0.907-1.059-0.784-2.658,0.274-3.565
							l14.081-12.068c0.797-0.684,1.91-0.806,2.836-0.312l15.085,8.046c0.664,0.354,1.139,1.046,1.271,1.852
							c0.076,0.462,0.097,1.351-0.618,2.11l-11.194,11.916c-0.526,0.561-0.765,1.331-0.649,2.091c0.117,0.76,0.576,1.424,1.246,1.8
							l10.497,5.904c0.679,0.382,1.137,1.043,1.257,1.813C140.541,184.99,140.306,185.76,139.776,186.331z"/>
					</g>
				</g>
			</g>
		</g>
		<g>
			<g>
				<path d="M123.685,180.746c-0.955-0.997-2.537-1.032-3.535-0.075l-20.708,19.846c-1.006,0.965-2.61,0.932-3.575-0.076
					c-0.965-1.007-0.931-2.611,0.076-3.576l23.811-22.818c0.997-0.955,1.03-2.537,0.075-3.534c-0.956-0.997-2.537-1.032-3.535-0.075
					l-23.811,22.818c-2.997,2.872-3.098,7.647-0.226,10.645c1.477,1.541,3.455,2.316,5.437,2.316c1.874,0,3.751-0.693,5.208-2.09
					l20.708-19.846C124.607,183.325,124.641,181.742,123.685,180.746z"/>
			</g>
		</g>
		<g>
			<g>
				<path d="M172.777,153.673c-1.145-1.653-2.864-2.763-4.843-3.122c-1.977-0.359-3.979,0.072-5.633,1.217l-9.409,6.515
					l-11.791-5.896c-1.235-0.615-2.737-0.116-3.354,1.118c-0.618,1.235-0.117,2.736,1.118,3.354l13.115,6.558
					c0.816,0.409,1.79,0.34,2.542-0.181l10.626-7.357c0.556-0.386,1.23-0.526,1.892-0.409c0.665,0.121,1.242,0.493,1.626,1.049
					c0.385,0.556,0.53,1.228,0.409,1.892c-0.121,0.664-0.493,1.242-1.048,1.626l-13.075,9.053c-0.759,0.525-1.744,0.598-2.57,0.182
					l-12.102-6.051c-1.235-0.619-2.737-0.117-3.354,1.118c-0.618,1.235-0.117,2.736,1.118,3.354l12.101,6.05
					c1.065,0.533,2.218,0.797,3.368,0.797c1.505,0,3.003-0.452,4.285-1.34l13.075-9.052c1.653-1.145,2.762-2.864,3.122-4.843
					C174.354,157.326,173.921,155.326,172.777,153.673z"/>
			</g>
		</g>
		<g>
			<g>
				<g>
					<g>
						<g>
							<path d="M166.421,47.932H91.695c-2.833,0-5.137,2.305-5.137,5.137v21.727c0,2.832,2.304,5.137,5.137,5.137h74.727
								c2.833,0,5.137-2.305,5.137-5.137V53.068C171.558,50.236,169.254,47.932,166.421,47.932z M166.558,74.795
								c0,0.075-0.062,0.137-0.137,0.137H91.695c-0.075,0-0.137-0.062-0.137-0.137V53.068c0-0.075,0.062-0.137,0.137-0.137h74.727
								c0.075,0,0.137,0.062,0.137,0.137V74.795z"/>
						</g>
					</g>
				</g>
			</g>
		</g>
	</g>
</g>
<g id="Layer_63">
</g>
<g id="Layer_64">
</g>
<g id="Layer_65">
</g>
<g id="Layer_66">
</g>
<g id="Layer_67">
</g>
<g id="Layer_68">
</g>
<g id="Layer_69">
</g>
<g id="Layer_70">
</g>
<g id="Layer_71">
</g>
<g id="Layer_72">
</g>
<g id="Layer_73">
</g>
<g id="Layer_74">
</g>
<g id="Layer_75">
</g>
</svg>
